<?xml version="1.0" encoding="UTF-8"?>
<svg width="32" height="32" viewBox="0 0 32 32" xmlns="http://www.w3.org/2000/svg">
  <!-- Professional favicon with minimal padding -->
  <rect width="32" height="32" fill="#BCFF83" rx="4"/>
  <circle cx="16" cy="16" r="14" fill="none" stroke="#000" stroke-width="1.5"/>
  
  <!-- Screw head (left) -->
  <circle cx="10" cy="12" r="3.5" fill="none" stroke="#000" stroke-width="1"/>
  <line x1="10" y1="8.5" x2="10" y2="15.5" stroke="#000" stroke-width="0.8"/>
  <line x1="6.5" y1="12" x2="13.5" y2="12" stroke="#000" stroke-width="0.8"/>
  
  <!-- Screw threads -->
  <path d="M 9 17 Q 8 19 9 21" fill="none" stroke="#000" stroke-width="0.8"/>
  <path d="M 11 17 Q 12 19 11 21" fill="none" stroke="#000" stroke-width="0.8"/>
  
  <!-- Truck body (right) -->
  <rect x="16" y="10" width="10" height="6" rx="0.5" fill="none" stroke="#000" stroke-width="1"/>
  
  <!-- Truck cabin -->
  <rect x="16" y="10" width="4" height="4" rx="0.3" fill="none" stroke="#000" stroke-width="0.8"/>
  
  <!-- Window -->
  <rect x="17" y="11" width="2" height="2" rx="0.2" fill="#000" opacity="0.3"/>
  
  <!-- Wheels -->
  <circle cx="18.5" cy="17.5" r="1.5" fill="none" stroke="#000" stroke-width="0.8"/>
  <circle cx="24" cy="17.5" r="1.5" fill="none" stroke="#000" stroke-width="0.8"/>
  <circle cx="18.5" cy="17.5" r="0.4" fill="#000"/>
  <circle cx="24" cy="17.5" r="0.4" fill="#000"/>
  
  <!-- SB text (small, bottom) -->
  <text x="16" y="26" font-family="Arial, sans-serif" font-size="5" font-weight="bold" fill="#000" text-anchor="middle">SB</text>
</svg>